<svg width="110" height="20" viewBox="0 0 110 20" fill="none" xmlns="http://www.w3.org/2000/svg">
<path d="M3.72875 19.2369C2.42042 19.2369 1.22111 19.2369 0 19.2369C0 13.0441 0 6.87312 0 0.636719C4.14307 0.636719 8.26432 0.636719 12.451 0.636719C12.451 1.68339 12.451 2.73005 12.451 3.84214C9.57266 3.84214 6.69432 3.84214 3.77237 3.84214C3.77237 5.52117 3.77237 7.11298 3.77237 8.77021C3.99042 8.77021 4.18667 8.77021 4.38292 8.77021C6.49807 8.77021 8.61321 8.79201 10.7502 8.77021C11.1863 8.77021 11.3825 8.85743 11.3607 9.33716C11.3171 10.2094 11.3607 11.1034 11.3607 12.041C8.78765 12.041 6.32362 12.041 3.75056 12.041C3.72876 14.4615 3.72875 16.8383 3.72875 19.2369Z" fill="#002266"/>
<path d="M38.7267 16.7053C37.5928 18.4061 36.001 19.2783 34.1039 19.5182C31.4436 19.8453 29.1105 19.2347 27.4096 17.0105C24.7711 13.5435 25.8832 7.48149 30.9639 6.17316C35.1506 5.08288 38.7921 7.69955 39.141 11.9953C39.1846 12.5186 39.141 13.0637 39.141 13.6525C35.9138 13.6525 32.7084 13.6525 29.5029 13.6525C29.5029 14.939 30.3752 16.0729 31.6835 16.5526C33.2971 17.1632 34.9544 16.6398 36.3063 15.0698C37.0695 15.5932 37.8763 16.1383 38.7267 16.7053ZM35.7393 11.3411C35.6957 9.90192 34.5182 8.76803 33.0136 8.72442C31.1602 8.659 29.6992 9.72747 29.5466 11.3411C31.5963 11.3411 33.646 11.3411 35.7393 11.3411Z" fill="#002266"/>
<path d="M92.6518 19.6003C88.5741 19.5785 85.6304 16.722 85.6304 12.7969C85.6304 8.87193 88.6832 5.88456 92.6736 5.90637C96.6204 5.92817 99.6514 8.95916 99.6296 12.8406C99.6078 16.7001 96.5986 19.6221 92.6518 19.6003ZM96.1843 13.3421C96.2061 11.445 95.6828 10.2675 94.4616 9.48249C92.3029 8.08693 89.5336 9.41708 89.0757 12.0774C88.8358 13.5165 89.1847 14.8467 90.4058 15.7843C91.5397 16.6783 92.8262 16.8528 94.1346 16.1986C95.5301 15.5445 96.1407 14.3669 96.1843 13.3421Z" fill="#002266"/>
<path d="M70.6283 11.4288C70.8246 9.94603 70.105 8.96477 68.7531 8.74671C67.4229 8.52866 66.2672 8.87755 65.395 9.96783C65.3078 10.0769 65.2205 10.1641 65.1115 10.2949C64.3265 9.79338 63.5633 9.31366 62.7565 8.79033C63.1054 8.04894 63.6287 7.5256 64.2611 7.11129C66.7251 5.5849 69.2546 5.43226 71.8058 6.84963C73.4413 7.74366 74.0082 9.31366 74.0518 11.0799C74.0954 13.6966 74.0736 16.3133 74.0736 18.9299C74.0736 19.0172 74.0518 19.1044 74.03 19.2134C72.9615 19.2134 71.9149 19.2134 70.8028 19.2134C70.8028 18.7119 70.8028 18.2322 70.8028 17.7524C70.7374 17.7088 70.6719 17.6652 70.6283 17.6434C70.5411 17.7742 70.4757 17.9269 70.3885 18.0359C68.7313 19.824 65.6349 20.1292 63.6505 18.7119C61.4046 17.1201 61.7098 13.4567 64.1739 12.1702C65.1987 11.6251 66.3108 11.4506 67.4229 11.407C68.4696 11.407 69.5381 11.4288 70.6283 11.4288ZM70.6283 13.7184C69.6035 13.7184 68.5786 13.6966 67.5538 13.7402C67.2049 13.7402 66.856 13.8492 66.5289 13.9801C65.8529 14.2417 65.4604 14.8305 65.4822 15.5065C65.504 16.1388 65.9401 16.684 66.6597 16.8802C67.641 17.1419 68.6004 17.0328 69.4726 16.4877C70.4321 15.8771 70.8464 14.8523 70.6283 13.7184Z" fill="#002266"/>
<path d="M50.9595 19.2721C49.8692 19.2721 48.8661 19.2721 47.8631 19.2721C47.7758 19.2721 47.6886 19.2502 47.5796 19.2502C47.5796 14.9327 47.5796 10.6588 47.5796 6.31952C48.6917 6.31952 49.7383 6.31952 50.8504 6.31952C50.8504 6.86466 50.8504 7.38799 50.8504 8.02036C50.9813 7.88952 51.0467 7.86772 51.0903 7.8023C52.4858 6.05785 54.3175 5.62174 56.389 6.07966C58.3952 6.51577 59.6599 8.02036 59.9216 10.0701C59.987 10.637 60.0088 11.204 60.0306 11.7709C60.0524 14.0387 60.0306 16.3065 60.0306 18.5743C60.0306 18.7705 60.0306 18.9668 60.0306 19.2066C58.8749 19.2066 57.7846 19.2066 56.6071 19.2066C56.6071 18.9886 56.6071 18.7705 56.6071 18.5743C56.6071 16.3501 56.6071 14.1041 56.6071 11.88C56.6071 10.0483 55.6259 8.9362 53.9686 8.9362C52.2024 8.91439 50.9595 10.1137 50.9376 11.9018C50.9158 14.1041 50.9376 16.2847 50.9376 18.487C50.9595 18.7269 50.9595 18.9668 50.9595 19.2721Z" fill="#002266"/>
<path d="M84.2131 16.2687C84.344 17.1191 84.4748 17.926 84.5838 18.7546C84.6056 18.8636 84.4312 19.038 84.3222 19.1035C82.7522 19.7576 81.1603 19.8448 79.6121 19.1035C78.4346 18.5583 77.8677 17.5116 77.8023 16.2687C77.7151 14.5461 77.7369 12.8016 77.7151 11.079C77.7151 10.4466 77.7151 9.83608 77.7151 9.1383C76.9737 9.1383 76.2541 9.1383 75.5127 9.1383C75.5127 8.17885 75.5127 7.28482 75.5127 6.32538C76.2105 6.32538 76.9301 6.32538 77.7151 6.32538C77.7151 4.95162 77.7151 3.62148 77.7151 2.26953C78.8926 2.26953 80.0046 2.26953 81.204 2.26953C81.204 2.72745 81.204 3.20717 81.204 3.66509C81.204 4.36287 81.2258 5.06065 81.204 5.75843C81.1821 6.17274 81.313 6.30357 81.7273 6.30357C82.5777 6.28176 83.4281 6.30357 84.3222 6.30357C84.3222 7.2194 84.3222 8.11343 84.3222 9.07288C83.3191 9.07288 82.316 9.07288 81.2476 9.07288C81.2258 9.31274 81.204 9.509 81.204 9.70525C81.204 11.3625 81.204 13.0197 81.204 14.6769C81.204 16.2469 81.989 16.8575 83.5154 16.4868C83.7116 16.4214 83.9297 16.356 84.2131 16.2687Z" fill="#002266"/>
<path d="M20.519 0.347656C21.6529 0.347656 22.7214 0.347656 23.8553 0.347656C23.8553 6.62767 23.8553 12.8859 23.8553 19.2095C22.765 19.2095 21.6747 19.2095 20.519 19.2095C20.519 12.9513 20.519 6.69309 20.519 0.347656Z" fill="#002266"/>
<path d="M109.507 6.01745C109.507 7.08592 109.507 8.08898 109.507 9.11385C109.006 9.11385 108.504 9.07024 108.024 9.11385C106.084 9.3319 105.015 10.5094 105.015 12.4719C104.993 14.4126 105.015 16.3533 105.015 18.2722C105.015 18.5557 105.015 18.861 105.015 19.188C103.881 19.188 102.791 19.188 101.657 19.188C101.657 14.8923 101.657 10.5966 101.657 6.27912C102.748 6.27912 103.816 6.27912 104.95 6.27912C104.95 6.86787 104.95 7.43481 104.95 7.97995C106.084 6.45356 107.567 5.79939 109.507 6.01745Z" fill="#002266"/>
<path d="M17.7493 19.2527C16.6154 19.2527 15.5252 19.2527 14.4131 19.2527C14.4131 14.957 14.4131 10.6613 14.4131 6.34375C15.5252 6.34375 16.6154 6.34375 17.7493 6.34375C17.7493 10.6177 17.7493 14.9134 17.7493 19.2527Z" fill="#002266"/>
<path d="M41.4302 6.30078C42.5641 6.30078 43.6543 6.30078 44.81 6.30078C44.81 10.6183 44.81 14.8922 44.81 19.2315C43.6762 19.2315 42.5859 19.2315 41.4302 19.2315C41.4302 14.9576 41.4302 10.6619 41.4302 6.30078Z" fill="#002266"/>
<path d="M43.1095 0C44.3088 0 45.2246 0.91583 45.2246 2.09333C45.2246 3.27084 44.287 4.18667 43.1095 4.18667C41.8884 4.18667 40.9507 3.27084 40.9725 2.07153C40.9725 0.89403 41.8884 0 43.1095 0Z" fill="#155DFC"/>
<path d="M18.2072 2.13506C18.2072 3.29076 17.2695 4.18479 16.0702 4.20659C14.8709 4.20659 13.9551 3.31256 13.9551 2.13506C13.9551 0.913945 14.8709 -0.00189303 16.092 0.0199126C17.3131 -0.00189303 18.2072 0.913945 18.2072 2.13506Z" fill="#002266"/>
</svg>
