<svg width="121" height="20" viewBox="0 0 121 20" fill="none" xmlns="http://www.w3.org/2000/svg">
<path d="M72.4277 9.3419C72.5808 8.11714 73.0401 7.14754 74.2649 6.58619C74.2649 8.42333 74.2649 10.2605 74.2649 12.0976C74.0608 11.8935 73.8566 11.7404 73.7035 11.5873C73.2442 11.179 72.6319 11.2301 72.2236 11.6383C71.8664 12.0466 71.8664 12.659 72.2746 13.0672C73.0401 13.8837 73.8056 14.7513 74.6221 15.5678C75.1324 16.0781 75.6938 16.0781 76.2041 15.5678C77.0206 14.7002 77.8371 13.8837 78.6536 13.0162C79.0618 12.6079 79.0619 12.0976 78.7557 11.6894C78.4495 11.2811 77.8371 11.128 77.3778 11.4342C77.1226 11.5873 76.8675 11.8424 76.5613 12.0466C76.5613 10.2094 76.5613 8.42333 76.5613 6.53516C77.7861 7.04547 78.2964 8.01507 78.3984 9.29086C78.6536 9.23983 78.8577 9.13777 79.1129 9.08674C81.1542 8.57642 83.1954 9.29087 84.4202 10.9749C85.696 12.659 85.8491 14.9043 84.7774 16.6905C83.7568 18.4255 82.2258 19.2931 80.1845 19.3441C77.0206 19.3441 73.8566 19.3441 70.6927 19.3441C68.1411 19.3441 66.0998 17.6601 65.5895 15.1595C65.0281 12.3017 66.8142 9.59705 69.57 9.03571C70.4885 8.83158 71.4581 8.93365 72.4277 9.3419Z" fill="url(#paint0_linear_534_331)"/>
<path d="M5.47293 9.85183C6.74872 9.85183 7.97347 9.85183 9.19823 9.85183C9.3003 9.85183 9.50443 9.64769 9.55546 9.4946C9.65753 9.13738 9.70856 8.78017 9.81062 8.42294C9.81062 8.32088 9.86164 8.16779 9.91267 8.16779C10.2699 8.16779 10.6271 8.16778 10.9843 8.26984C11.1374 8.32087 11.2905 8.57603 11.2905 8.72912C11.2905 10.0049 11.2905 11.2297 11.2905 12.5055C11.2905 12.8117 11.1885 13.0158 10.8823 13.1179C10.7292 13.1689 10.5761 13.271 10.372 13.271C10.0658 13.322 9.81062 13.2709 9.75959 12.9137C9.70855 12.5565 9.60649 12.1993 9.50443 11.8421C9.4534 11.6379 9.35134 11.4848 9.09618 11.4848C7.92245 11.4848 6.79974 11.4848 5.62602 11.4848C5.52395 11.4848 5.47292 11.4848 5.37086 11.5359C5.37086 11.689 5.37086 11.8421 5.37086 11.9952C5.37086 13.6282 5.37086 15.3122 5.37086 16.9452C5.37086 17.2514 5.47293 17.4045 5.77912 17.4045C6.23841 17.4555 6.74872 17.5576 7.208 17.6086C7.61625 17.6597 7.66729 17.8638 7.56523 18.17C7.5142 18.4251 7.3611 18.6803 7.25904 18.9355C7.208 19.0375 7.00387 19.0886 6.90181 19.0886C4.70745 19.0886 2.56412 19.0886 0.369759 19.0886C0.0635685 19.0886 -0.0385011 18.9355 0.0125306 18.6803C0.114594 17.9659 0.216654 17.7617 0.982129 17.5576C1.9007 17.3025 1.90071 17.3025 1.90071 16.3329C1.90071 12.2503 1.90071 8.21881 1.90071 4.13627C1.90071 3.77905 1.79865 3.62597 1.44143 3.57493C1.08421 3.5239 0.72698 3.42183 0.369759 3.37079C0.0125368 3.31976 -0.038498 3.11565 0.0635654 2.80946C0.0635654 2.80946 0.0635654 2.80946 0.0635654 2.75842C0.369755 1.83985 0.369755 1.83984 1.33936 1.83984C4.96261 1.83984 8.53483 1.83984 12.1581 1.83984C12.5663 1.83984 12.7194 1.94191 12.6684 2.35016C12.6174 3.37079 12.6174 4.44246 12.6684 5.4631C12.6684 5.82032 12.5153 5.92238 12.2091 5.92238C11.8008 5.92238 11.4436 5.66723 11.2905 5.25897C11.1374 4.85072 10.9843 4.39143 10.8313 3.98318C10.7292 3.67699 10.5761 3.57493 10.3209 3.57493C10.1168 3.57493 9.91267 3.57493 9.65752 3.57493C8.33069 3.57493 7.00387 3.62595 5.67705 3.62595C5.42189 3.62595 5.2688 3.62596 5.2688 3.98318C5.2688 5.87135 5.2688 7.70849 5.2688 9.59667C5.4219 9.69873 5.47293 9.74976 5.47293 9.85183Z" fill="url(#paint1_linear_534_331)"/>
<path d="M54.8014 9.23941C55.2096 8.93322 55.4648 8.72909 55.771 8.47394C56.8937 7.6064 58.1185 6.94299 59.5984 6.7899C61.4355 6.6368 62.7113 7.55538 63.0175 9.39252C63.1196 9.95386 63.1706 10.5152 63.1706 11.0766C63.1706 13.0158 63.1706 15.006 63.1706 16.9452C63.1706 17.3024 63.3237 17.4555 63.6299 17.5066C63.9361 17.5576 64.1912 17.6596 64.4974 17.6596C64.8036 17.7107 64.9057 17.8638 64.8036 18.0679C64.7016 18.3741 64.5995 18.6803 64.4464 18.9865C64.3954 19.0885 64.2423 19.1396 64.0892 19.1396C62.3031 19.1396 60.517 19.1396 58.6798 19.1396C58.3736 19.1396 58.2716 19.0375 58.3226 18.7313C58.3736 18.17 58.5778 17.7107 59.1901 17.6086C59.5984 17.5576 59.7515 17.3024 59.7515 16.8431C59.7004 14.8529 59.7005 12.8627 59.7005 10.8724C59.7005 10.5662 59.6494 10.26 59.5474 10.0049C59.2922 9.34147 58.7819 9.03528 58.0674 8.98425C56.9447 8.93322 56.0772 9.49458 55.2097 10.107C54.9035 10.3111 54.8014 10.5662 54.8014 10.9235C54.8014 12.9137 54.8014 14.9039 54.8014 16.8942C54.8014 17.2514 54.9035 17.4045 55.2607 17.4555C55.4648 17.4555 55.72 17.5576 55.9241 17.6086C56.2813 17.6597 56.3834 17.8127 56.2813 18.17C56.2303 18.3741 56.1282 18.6293 55.9751 18.8334C55.8731 18.9354 55.72 19.0885 55.5669 19.0885C53.7808 19.0885 51.9436 19.0885 50.1575 19.0885C49.8513 19.0885 49.8003 18.9354 49.8003 18.6803C49.9024 18.1189 50.0554 17.6086 50.7189 17.5576C50.872 17.5576 50.974 17.4555 51.1271 17.4045C51.3823 17.3534 51.4333 17.2004 51.4333 16.9452C51.4333 14.2916 51.4333 11.6889 51.4333 9.03529C51.4333 8.78013 51.3312 8.62704 51.0761 8.62704C50.872 8.57601 50.7189 8.52497 50.5147 8.52497C50.0044 8.37188 49.6982 7.86157 49.8513 7.35125C49.9024 7.24918 50.0044 7.14712 50.1065 7.14712C50.974 7.04506 51.8416 6.94299 52.7601 6.84093C52.9132 6.84093 53.0153 6.84093 53.1684 6.84093C54.2401 6.89196 54.5973 7.30022 54.6483 8.37188C54.7504 8.67807 54.8014 8.88219 54.8014 9.23941Z" fill="url(#paint2_linear_534_331)"/>
<path d="M96 14.4557C96 9.55666 99.4702 6.54579 103.706 7.05611C105.39 7.26023 106.87 7.82158 107.89 9.25046C108.707 10.3732 109.013 11.7 108.962 13.0778C108.911 15.0681 108.248 16.8032 106.717 18.13C105.492 19.2017 104.012 19.6609 102.43 19.712C101.052 19.763 99.7253 19.6099 98.5006 18.8955C96.7145 17.7728 96.051 15.9867 96 14.4557ZM99.6743 13.282C99.7253 14.6088 99.7764 15.8846 100.389 17.0583C100.695 17.6707 101.103 18.13 101.767 18.3341C102.94 18.6913 104.063 18.2831 104.675 17.1604C105.492 15.6805 105.543 14.0985 105.441 12.4655C105.39 11.5469 105.186 10.6283 104.777 9.76078C104.318 8.84221 103.604 8.22983 102.481 8.28086C101.409 8.3319 100.746 8.89325 100.287 9.86285C99.7764 10.9855 99.6743 12.1593 99.6743 13.282Z" fill="url(#paint3_linear_534_331)"/>
<path d="M33.0713 13.0688C33.1734 14.6508 33.4796 16.0797 34.8574 16.9982C35.725 17.6106 36.7456 17.7127 37.7662 17.5086C38.7869 17.3044 39.6544 16.7431 40.4709 16.0286C40.624 16.3348 40.7771 16.59 40.8792 16.8451C40.9302 16.9472 40.8281 17.1513 40.7261 17.2024C39.1441 18.8864 37.2049 19.6008 34.9085 19.4478C33.3265 19.3457 31.8976 18.7843 30.8259 17.5086C30.4177 16.9982 30.0605 16.4369 29.8563 15.8755C28.8867 13.2219 29.6012 9.75174 32.2038 7.86357C34.092 6.53674 36.7966 6.33261 38.6338 7.45531C40.3689 8.52697 41.0323 10.7213 40.8281 12.3544C40.7771 12.8647 40.573 13.0178 40.0627 13.0178C37.9193 13.0178 35.776 13.0178 33.6837 13.0178C33.4796 13.0688 33.3265 13.0688 33.0713 13.0688ZM33.0713 11.742C33.1734 11.742 33.2244 11.793 33.2755 11.793C34.7043 11.793 36.1332 11.793 37.5111 11.793C37.7152 11.793 37.7662 11.6909 37.7662 11.4868C37.7662 10.5683 37.6131 9.70071 37.1538 8.93524C36.4904 7.86357 35.2657 7.65943 34.2961 8.47594C33.3775 9.39451 33.1734 10.5683 33.0713 11.742Z" fill="url(#paint4_linear_534_331)"/>
<path d="M26.9779 9.1889C26.9779 11.7405 26.9779 14.3431 26.9779 16.8947C26.9779 17.2519 27.0289 17.405 27.4372 17.456C27.8454 17.5071 28.2027 17.6091 28.5599 17.6601C28.6619 17.6601 28.815 17.7112 28.815 17.7622C28.815 18.0174 28.8661 18.2725 28.815 18.5277C28.713 18.7829 28.713 19.1911 28.2537 19.1911C26.2635 19.1911 24.2222 19.1911 22.2319 19.1911C21.9258 19.1911 21.8747 19.089 21.8747 18.7829C21.9258 18.0684 22.0789 17.8643 22.7423 17.6601C23.6608 17.405 23.6608 17.405 23.6608 16.4864C23.6608 12.7611 23.7119 9.03581 23.7119 5.36152C23.7119 4.28986 23.6608 3.21818 23.6608 2.14652C23.6608 1.89136 23.6098 1.78931 23.3547 1.78931C23.0995 1.73827 22.8443 1.68723 22.5381 1.6362C22.0278 1.53414 21.7216 0.921764 21.9258 0.462479C21.9768 0.360416 22.0788 0.258355 22.1809 0.258355C23.2526 0.156292 24.3753 0.0542287 25.447 0.00319697C26.4676 -0.0478347 26.9779 0.513501 26.9779 1.58517C26.9779 4.13675 26.9779 6.68835 26.9779 9.1889Z" fill="url(#paint5_linear_534_331)"/>
<path d="M87.4008 8.88238C86.8904 8.88238 86.4311 8.88238 85.9718 8.88238C85.6146 8.88238 85.5126 8.72928 85.5636 8.42309C85.5636 8.37206 85.5636 8.37206 85.5636 8.32102C85.7677 7.30039 85.7677 7.30039 86.7884 7.24935C87.3497 7.24935 87.3497 7.24935 87.3497 6.688C87.3497 6.17769 87.3497 5.7184 87.3497 5.20809C87.3497 4.9019 87.4518 4.7488 87.7579 4.64674C88.5745 4.39158 89.391 4.13642 90.2075 3.88126C90.5647 3.7792 90.7178 3.88127 90.7178 4.23849C90.7178 5.00396 90.7178 5.82047 90.7178 6.58595C90.7178 6.94317 90.8199 7.09626 91.1771 7.04523C92.0446 6.9942 92.9632 7.04523 93.8307 6.9942C94.1369 6.9942 94.3411 7.09626 94.29 7.45348C94.239 7.86173 94.1369 8.26999 93.9838 8.62722C93.9328 8.78031 93.6266 8.88238 93.4735 8.88238C92.606 8.88238 91.6874 8.88238 90.7688 8.88238C90.7688 9.03547 90.7688 9.13753 90.7688 9.29062C90.7688 11.2298 90.7688 13.2201 90.7688 15.1593C90.7688 15.3634 90.7688 15.5165 90.8198 15.7206C90.9219 16.7923 91.5853 17.3026 92.657 17.0985C93.2184 16.9964 93.7287 16.7413 94.239 16.5371C94.5452 16.384 94.6472 16.4351 94.8003 16.7413C95.1065 17.4557 95.1576 17.4557 94.5452 17.966C93.2694 18.9866 91.8405 19.599 90.2075 19.4459C88.6255 19.2928 87.7069 18.3232 87.5538 16.7413C87.5028 16.4351 87.5028 16.1289 87.5028 15.8227C87.5028 13.6794 87.5028 11.536 87.5028 9.44373C87.4007 9.29063 87.4008 9.0865 87.4008 8.88238Z" fill="url(#paint6_linear_534_331)"/>
<path d="M115.233 8.88219C115.846 8.37187 116.356 7.81053 116.968 7.35124C117.785 6.78989 118.755 6.4837 119.775 6.84092C120.541 7.09608 121 7.70845 121 8.47393C121 9.2394 120.592 9.90283 119.877 10.158C119.571 10.26 119.316 10.3111 119.163 9.90283C118.857 9.18838 118.142 8.83115 117.377 9.03528C116.968 9.13734 116.611 9.29044 116.203 9.49456C115.54 9.85178 115.182 10.3111 115.233 11.1786C115.335 13.0668 115.284 14.955 115.233 16.8431C115.233 17.2514 115.386 17.4045 115.744 17.4045C116.203 17.4555 116.662 17.5576 117.071 17.6596C117.377 17.7107 117.428 17.8638 117.377 18.1189C117.275 18.4251 117.173 18.7313 117.019 18.9865C116.968 19.0885 116.815 19.1396 116.662 19.1396C114.621 19.1396 112.529 19.1396 110.487 19.1396C110.181 19.1396 110.079 18.9865 110.13 18.7313C110.181 18.1189 110.385 17.8638 110.998 17.6596C111.916 17.4045 111.916 17.4045 111.916 16.4859C111.916 14.5467 111.916 12.5565 111.916 10.6173C111.916 10.158 111.967 9.74972 112.018 9.29044C112.069 8.88219 111.916 8.7291 111.508 8.67807C111.304 8.67807 111.1 8.576 110.896 8.52496C110.436 8.4229 110.181 7.75949 110.385 7.35124C110.436 7.24918 110.538 7.19814 110.641 7.19814C111.559 7.09607 112.529 6.94299 113.498 6.84092C113.651 6.84092 113.856 6.84093 114.009 6.89196C114.876 7.04505 115.131 7.40226 115.182 8.21877C115.233 8.47393 115.233 8.7291 115.233 8.88219Z" fill="url(#paint7_linear_534_331)"/>
<path d="M18.9661 12.8611C18.9661 14.29 18.9661 15.6678 18.9661 17.0967C18.9661 17.3519 19.0681 17.505 19.3233 17.505C19.6805 17.556 20.0377 17.6581 20.446 17.7091C20.7011 17.7601 20.8032 17.9132 20.7522 18.1174C20.7011 18.4235 20.548 18.7808 20.446 19.0359C20.3949 19.138 20.2418 19.138 20.0888 19.189C18.0985 19.189 16.1593 19.189 14.1691 19.189C13.8629 19.189 13.7608 19.0359 13.8118 18.7808C13.9139 18.0663 14.016 17.9132 14.7814 17.7091C15.598 17.4539 15.598 17.4539 15.598 16.6374C15.598 14.1879 15.598 11.7384 15.598 9.3399C15.598 8.98268 15.4959 8.82958 15.1897 8.82958C14.9856 8.77855 14.7814 8.72753 14.5773 8.6765C14.067 8.57443 13.7098 7.96204 13.9139 7.45172C13.9649 7.34966 14.118 7.29863 14.2201 7.2476C15.1897 7.14554 16.1083 7.04347 17.0779 6.94141C17.333 6.94141 17.6392 6.94141 17.8944 7.04348C18.5068 7.19657 18.864 7.60482 18.915 8.2172C18.966 8.47236 18.9661 8.6765 18.9661 8.93165C18.9661 10.2074 18.9661 11.5343 18.9661 12.8611Z" fill="url(#paint8_linear_534_331)"/>
<path d="M46.9723 12.7622C46.9723 14.1401 46.9723 15.569 46.9723 16.9468C46.9723 17.304 47.0744 17.4571 47.4316 17.5082C47.7888 17.5592 48.146 17.6613 48.5032 17.7123C48.7584 17.7633 48.8094 17.8654 48.8094 18.0695C48.8094 18.6819 48.4012 19.1922 47.7888 19.1922C45.9517 19.1922 44.1145 19.1922 42.2263 19.1922C41.8181 19.1922 41.7671 19.0901 41.8181 18.6819C41.8691 18.1716 42.0732 17.8144 42.6346 17.7123C43.6042 17.4571 43.6042 17.4061 43.6042 16.4365C43.6042 14.038 43.6042 11.6395 43.6042 9.29206C43.6042 8.98587 43.5021 8.78174 43.196 8.78174C42.9918 8.78174 42.7877 8.67969 42.5836 8.62866C42.0222 8.52659 41.716 7.91421 41.9202 7.4039C41.9712 7.30183 42.1243 7.19976 42.2263 7.19976C43.247 7.0977 44.2676 6.94461 45.2882 6.89358C46.3599 6.84255 46.9723 7.45492 46.9723 8.52659C46.9723 9.90444 46.9723 11.3333 46.9723 12.7622Z" fill="url(#paint9_linear_534_331)"/>
<path d="M45.1865 4.54538C44.2169 4.54538 43.4004 3.77991 43.4004 2.81031C43.4004 1.73864 44.2169 0.871094 45.2375 0.871094C46.2582 0.871094 47.0237 1.6876 47.0237 2.70824C47.0237 3.72887 46.1561 4.54538 45.1865 4.54538Z" fill="url(#paint10_linear_534_331)"/>
<path d="M19.0169 2.71C19.0169 3.73063 18.2004 4.54714 17.2308 4.54714C16.2101 4.54714 15.3936 3.78167 15.4447 2.81207C15.4447 1.7404 16.2611 0.974926 17.3328 0.974926C18.2514 0.923894 18.9658 1.7404 19.0169 2.71Z" fill="url(#paint11_linear_534_331)"/>
<defs>
<linearGradient id="paint0_linear_534_331" x1="65.4863" y1="12.9396" x2="85.4895" y2="12.9396" gradientUnits="userSpaceOnUse">
<stop stop-color="#155DFC"/>
<stop offset="1" stop-color="#695FF9"/>
</linearGradient>
<linearGradient id="paint1_linear_534_331" x1="0" y1="10.4642" x2="12.6779" y2="10.4642" gradientUnits="userSpaceOnUse">
<stop stop-color="#155DFC"/>
<stop offset="1" stop-color="#695FF9"/>
</linearGradient>
<linearGradient id="paint2_linear_534_331" x1="49.8003" y1="12.9565" x2="64.8419" y2="12.9565" gradientUnits="userSpaceOnUse">
<stop stop-color="#155DFC"/>
<stop offset="1" stop-color="#695FF9"/>
</linearGradient>
<linearGradient id="paint3_linear_534_331" x1="96" y1="13.3605" x2="108.967" y2="13.3605" gradientUnits="userSpaceOnUse">
<stop stop-color="#155DFC"/>
<stop offset="1" stop-color="#695FF9"/>
</linearGradient>
<linearGradient id="paint4_linear_534_331" x1="29.4424" y1="13.0973" x2="40.8928" y2="13.0973" gradientUnits="userSpaceOnUse">
<stop stop-color="#155DFC"/>
<stop offset="1" stop-color="#695FF9"/>
</linearGradient>
<linearGradient id="paint5_linear_534_331" x1="21.8618" y1="9.59555" x2="28.8377" y2="9.59555" gradientUnits="userSpaceOnUse">
<stop stop-color="#155DFC"/>
<stop offset="1" stop-color="#695FF9"/>
</linearGradient>
<linearGradient id="paint6_linear_534_331" x1="85.5513" y1="11.6565" x2="95.0216" y2="11.6565" gradientUnits="userSpaceOnUse">
<stop stop-color="#155DFC"/>
<stop offset="1" stop-color="#695FF9"/>
</linearGradient>
<linearGradient id="paint7_linear_534_331" x1="110.118" y1="12.9135" x2="121" y2="12.9135" gradientUnits="userSpaceOnUse">
<stop stop-color="#155DFC"/>
<stop offset="1" stop-color="#695FF9"/>
</linearGradient>
<linearGradient id="paint8_linear_534_331" x1="13.7993" y1="13.0652" x2="20.7649" y2="13.0652" gradientUnits="userSpaceOnUse">
<stop stop-color="#155DFC"/>
<stop offset="1" stop-color="#695FF9"/>
</linearGradient>
<linearGradient id="paint9_linear_534_331" x1="41.8018" y1="13.0414" x2="48.8094" y2="13.0414" gradientUnits="userSpaceOnUse">
<stop stop-color="#155DFC"/>
<stop offset="1" stop-color="#695FF9"/>
</linearGradient>
<linearGradient id="paint10_linear_534_331" x1="43.4004" y1="2.70824" x2="47.0237" y2="2.70824" gradientUnits="userSpaceOnUse">
<stop stop-color="#155DFC"/>
<stop offset="1" stop-color="#695FF9"/>
</linearGradient>
<linearGradient id="paint11_linear_534_331" x1="15.4424" y1="2.7599" x2="19.0169" y2="2.7599" gradientUnits="userSpaceOnUse">
<stop stop-color="#155DFC"/>
<stop offset="1" stop-color="#695FF9"/>
</linearGradient>
</defs>
</svg>
