<svg width="110" height="20" viewBox="0 0 110 20" fill="none" xmlns="http://www.w3.org/2000/svg">
<path d="M3.72875 19.233C2.42042 19.233 1.22111 19.233 0 19.233C0 13.0402 0 6.86922 0 0.632812C4.14307 0.632812 8.26432 0.632812 12.451 0.632812C12.451 1.67948 12.451 2.72615 12.451 3.83823C9.57266 3.83823 6.69432 3.83823 3.77237 3.83823C3.77237 5.51726 3.77237 7.10908 3.77237 8.7663C3.99042 8.7663 4.18667 8.7663 4.38292 8.7663C6.49807 8.7663 8.61321 8.78811 10.7502 8.7663C11.1863 8.7663 11.3825 8.85353 11.3607 9.33325C11.3171 10.2055 11.3607 11.0995 11.3607 12.0371C8.78765 12.0371 6.32362 12.0371 3.75056 12.0371C3.72876 14.4576 3.72875 16.8344 3.72875 19.233Z" fill="white"/>
<path d="M38.7267 16.7014C37.5928 18.4022 36.001 19.2744 34.1039 19.5143C31.4436 19.8414 29.1105 19.2308 27.4096 17.0066C24.7711 13.5395 25.8832 7.47759 30.9639 6.16925C35.1506 5.07897 38.7921 7.69565 39.141 11.9914C39.1846 12.5147 39.141 13.0598 39.141 13.6486C35.9138 13.6486 32.7084 13.6486 29.5029 13.6486C29.5029 14.9351 30.3752 16.069 31.6835 16.5487C33.2971 17.1593 34.9544 16.6359 36.3063 15.0659C37.0695 15.5893 37.8763 16.1344 38.7267 16.7014ZM35.7393 11.3372C35.6957 9.89801 34.5182 8.76412 33.0136 8.72051C31.1602 8.65509 29.6992 9.72357 29.5466 11.3372C31.5963 11.3372 33.646 11.3372 35.7393 11.3372Z" fill="white"/>
<path d="M92.6518 19.6003C88.5741 19.5785 85.6304 16.722 85.6304 12.7969C85.6304 8.87193 88.6832 5.88456 92.6736 5.90637C96.6204 5.92817 99.6514 8.95916 99.6296 12.8406C99.6078 16.7001 96.5986 19.6221 92.6518 19.6003ZM96.1843 13.3421C96.2061 11.445 95.6828 10.2675 94.4616 9.48249C92.3029 8.08693 89.5336 9.41708 89.0757 12.0774C88.8358 13.5165 89.1847 14.8467 90.4058 15.7843C91.5397 16.6783 92.8262 16.8528 94.1346 16.1986C95.5301 15.5445 96.1407 14.3669 96.1843 13.3421Z" fill="white"/>
<path d="M70.6283 11.4249C70.8246 9.94212 70.105 8.96086 68.7531 8.74281C67.4229 8.52475 66.2672 8.87364 65.395 9.96392C65.3078 10.073 65.2205 10.1602 65.1115 10.291C64.3265 9.78948 63.5633 9.30976 62.7565 8.78642C63.1054 8.04503 63.6287 7.52169 64.2611 7.10739C66.7251 5.58099 69.2546 5.42836 71.8058 6.84572C73.4413 7.73975 74.0082 9.30976 74.0518 11.076C74.0954 13.6927 74.0736 16.3094 74.0736 18.926C74.0736 19.0133 74.0518 19.1005 74.03 19.2095C72.9615 19.2095 71.9149 19.2095 70.8028 19.2095C70.8028 18.708 70.8028 18.2283 70.8028 17.7485C70.7374 17.7049 70.6719 17.6613 70.6283 17.6395C70.5411 17.7703 70.4757 17.923 70.3885 18.032C68.7313 19.8201 65.6349 20.1253 63.6505 18.708C61.4046 17.1162 61.7098 13.4528 64.1739 12.1663C65.1987 11.6212 66.3108 11.4467 67.4229 11.4031C68.4696 11.4031 69.5381 11.4249 70.6283 11.4249ZM70.6283 13.7145C69.6035 13.7145 68.5786 13.6927 67.5538 13.7363C67.2049 13.7363 66.856 13.8453 66.5289 13.9762C65.8529 14.2378 65.4604 14.8266 65.4822 15.5025C65.504 16.1349 65.9401 16.6801 66.6597 16.8763C67.641 17.138 68.6004 17.0289 69.4726 16.4838C70.4321 15.8732 70.8464 14.8484 70.6283 13.7145Z" fill="white"/>
<path d="M50.9595 19.2721C49.8692 19.2721 48.8661 19.2721 47.8631 19.2721C47.7758 19.2721 47.6886 19.2502 47.5796 19.2502C47.5796 14.9327 47.5796 10.6588 47.5796 6.31952C48.6917 6.31952 49.7383 6.31952 50.8504 6.31952C50.8504 6.86466 50.8504 7.38799 50.8504 8.02036C50.9813 7.88952 51.0467 7.86772 51.0903 7.8023C52.4858 6.05785 54.3175 5.62174 56.389 6.07966C58.3952 6.51577 59.6599 8.02036 59.9216 10.0701C59.987 10.637 60.0088 11.204 60.0306 11.7709C60.0524 14.0387 60.0306 16.3065 60.0306 18.5743C60.0306 18.7705 60.0306 18.9668 60.0306 19.2066C58.8749 19.2066 57.7846 19.2066 56.6071 19.2066C56.6071 18.9886 56.6071 18.7705 56.6071 18.5743C56.6071 16.3501 56.6071 14.1041 56.6071 11.88C56.6071 10.0483 55.6259 8.9362 53.9686 8.9362C52.2024 8.91439 50.9595 10.1137 50.9376 11.9018C50.9158 14.1041 50.9376 16.2847 50.9376 18.487C50.9595 18.7269 50.9595 18.9668 50.9595 19.2721Z" fill="white"/>
<path d="M84.2131 16.2648C84.344 17.1152 84.4748 17.9221 84.5838 18.7507C84.6056 18.8597 84.4312 19.0341 84.3222 19.0996C82.7522 19.7537 81.1603 19.8409 79.6121 19.0996C78.4346 18.5544 77.8677 17.5077 77.8023 16.2648C77.7151 14.5422 77.7369 12.7977 77.7151 11.0751C77.7151 10.4427 77.7151 9.83217 77.7151 9.13439C76.9737 9.13439 76.2541 9.13439 75.5127 9.13439C75.5127 8.17495 75.5127 7.28092 75.5127 6.32147C76.2105 6.32147 76.9301 6.32147 77.7151 6.32147C77.7151 4.94772 77.7151 3.61757 77.7151 2.26562C78.8926 2.26562 80.0046 2.26562 81.204 2.26562C81.204 2.72354 81.204 3.20326 81.204 3.66118C81.204 4.35896 81.2258 5.05674 81.204 5.75452C81.1821 6.16883 81.313 6.29966 81.7273 6.29966C82.5777 6.27786 83.4281 6.29966 84.3222 6.29966C84.3222 7.2155 84.3222 8.10952 84.3222 9.06897C83.3191 9.06897 82.316 9.06897 81.2476 9.06897C81.2258 9.30883 81.204 9.50509 81.204 9.70134C81.204 11.3586 81.204 13.0158 81.204 14.673C81.204 16.243 81.989 16.8536 83.5154 16.4829C83.7116 16.4175 83.9297 16.352 84.2131 16.2648Z" fill="white"/>
<path d="M20.519 0.347656C21.6529 0.347656 22.7214 0.347656 23.8553 0.347656C23.8553 6.62767 23.8553 12.8859 23.8553 19.2095C22.765 19.2095 21.6747 19.2095 20.519 19.2095C20.519 12.9513 20.519 6.69309 20.519 0.347656Z" fill="white"/>
<path d="M109.507 6.01745C109.507 7.08592 109.507 8.08898 109.507 9.11385C109.006 9.11385 108.504 9.07024 108.024 9.11385C106.084 9.3319 105.015 10.5094 105.015 12.4719C104.993 14.4126 105.015 16.3533 105.015 18.2722C105.015 18.5557 105.015 18.861 105.015 19.188C103.881 19.188 102.791 19.188 101.657 19.188C101.657 14.8923 101.657 10.5966 101.657 6.27912C102.748 6.27912 103.816 6.27912 104.95 6.27912C104.95 6.86787 104.95 7.43481 104.95 7.97995C106.084 6.45356 107.567 5.79939 109.507 6.01745Z" fill="white"/>
<path d="M17.7493 19.2488C16.6154 19.2488 15.5252 19.2488 14.4131 19.2488C14.4131 14.9531 14.4131 10.6574 14.4131 6.33984C15.5252 6.33984 16.6154 6.33984 17.7493 6.33984C17.7493 10.6137 17.7493 14.9095 17.7493 19.2488Z" fill="white"/>
<path d="M41.4302 6.30078C42.5641 6.30078 43.6543 6.30078 44.81 6.30078C44.81 10.6183 44.81 14.8922 44.81 19.2315C43.6762 19.2315 42.5859 19.2315 41.4302 19.2315C41.4302 14.9576 41.4302 10.6619 41.4302 6.30078Z" fill="white"/>
<path d="M43.1095 0C44.3088 0 45.2246 0.91583 45.2246 2.09333C45.2246 3.27084 44.287 4.18667 43.1095 4.18667C41.8884 4.18667 40.9507 3.27084 40.9725 2.07153C40.9725 0.89403 41.8884 0 43.1095 0Z" fill="#155DFC"/>
<path d="M18.2072 2.13506C18.2072 3.29076 17.2695 4.18479 16.0702 4.20659C14.8709 4.20659 13.9551 3.31256 13.9551 2.13506C13.9551 0.913945 14.8709 -0.00189303 16.092 0.0199126C17.3131 -0.00189303 18.2072 0.913945 18.2072 2.13506Z" fill="white"/>
</svg>
